<?xml version="1.0" encoding="UTF-8"?>
<svg id="Layer_1" xmlns="http://www.w3.org/2000/svg" version="1.1" viewBox="0 0 432 432">
  <path d="M217.2,18.1c17.4,2.5,14.8,21.7,14.7,34.7,51,6.5,92,49.2,97.9,100.1,5.2,44.9-8.6,79.2,19.1,120.6,7.6,11.5,17,17.5,24.6,27.1,13.8,17.3,3.8,42.6-17.8,46.3H77c-23.5-1.9-34.3-29.5-18.9-47.4,7.6-8.8,15.8-14.2,23-24.9,34.7-51.4,7.1-100.5,27.6-151.5,15.3-37.9,50.2-64.2,90.3-71,1.7-10.5-3.4-23.8,6.9-30.9s4.8-1.7,7.3-3.1c1.2.1,2.7-.2,3.9,0Z"/>
  <path d="M104.3,30.6c12.1-1.3,20.8,10.2,17.2,21.9s-11.2,13.3-15.1,18.1c-22,26.7-35.5,60.1-39,94.6s2.3,26-10.8,30.8c-14.4,5.3-22.7-6.8-22.4-20.1,1.2-46.7,19.1-93.5,49.5-128.8s12.8-15.6,20.7-16.4Z"/>
  <path d="M322.7,30.6c8.9-1,14.4,5.5,19.9,11.4,23.6,25,41.4,60.5,48.8,94,2.5,11.2,7.5,41.2,3.7,51.1s-22.7,13.4-29.1,2.1c-3.4-5.9-2.2-19-2.9-26.4-3.3-33-17.1-65.4-37.8-91.1s-23.9-20.2-13.7-34.6c2.2-3.1,7.5-6.1,11.3-6.5Z"/>
  <path d="M275.8,363.8c-5.9,25-25.1,44.3-50.8,48.4-32.2,5.2-63.7-16.4-69.6-48.4h120.4Z"/>
</svg>