<?xml version="1.0" encoding="UTF-8"?>
<svg id="Layer_1" xmlns="http://www.w3.org/2000/svg" version="1.1" viewBox="0 0 432 432">
  <path d="M414,341.4v4.6c-2.7,31.3-25,53.8-56.7,55.6H75.5c-38.3-1.4-64.9-37.8-53.8-74.7,1.7-5.6,4.9-11.2,7.5-16.4,43.1-85.2,93.5-167,137.2-251.9,21.5-38.3,77.9-38.6,99.8-.5,43.9,85,94.3,167,137.5,252.3,5,9.8,9.8,19.6,10.4,30.9ZM212.3,123.9c-9.5,1.5-17.6,10.2-19,19.6v121.9c4,26.8,40.3,27.8,46.2,1.4-.5-42.3,1.3-85-.9-127.1-3.8-10.9-14.7-17.7-26.2-15.9ZM212.3,309.2c-27.4,4.3-24.3,47,4.3,46.6,32.7-.4,28.8-51.8-4.3-46.6Z"/>
</svg>