<?xml version="1.0" encoding="UTF-8"?>
<svg id="Layer_1" xmlns="http://www.w3.org/2000/svg" version="1.1" viewBox="0 0 432 432">
  <path d="M220.2,18c18.5.4,66.9,5.8,75.6,25.2,8,17.8-7.8,50.2-20.3,63.6-2.1,2.2-9.4,7.6-9.7,9.7,2.4,7.2,4.6,49,7.5,52.1s10.5,6.9,14,9.7c18.4,14.7,45,43.6,43.3,68.6s-19,33-39,39.7c-19.8,6.7-40.6,9.2-61.3,10.8l-6.3,104.4c-.5,15.3-17,14.3-16.9-.7l-6.2-103.8c-20.8-1.7-41.5-4.2-61.4-10.8-17-5.7-31.6-12.1-37.2-30.7s2.8-34,13.8-49c11.3-15.4,25.4-28.4,41.8-38.3l7.5-52.1c-.3-2.1-7.6-7.5-9.7-9.7-12.5-13.4-28.3-45.8-20.3-63.6,8.7-19.4,57.1-24.8,75.6-25.2s6.2,0,9.3,0Z"/>
</svg>